<?xml version="1.0" encoding="utf-8"?>
<!-- Generator: Adobe Illustrator 27.5.0, SVG Export Plug-In . SVG Version: 6.00 Build 0)  -->
<svg version="1.1" id="Layer_1" xmlns="http://www.w3.org/2000/svg" xmlns:xlink="http://www.w3.org/1999/xlink" x="0px" y="0px"
	 viewBox="0 0 1863.5 659.99" style="enable-background:new 0 0 1863.5 659.99;" xml:space="preserve">
<style type="text/css">
	.st0{fill:#D4AF35;}
	.st1{fill:#2D3848;}
	.st2{fill:#8C1739;}
</style>
<g>
	<path class="st0" d="M208.97,3.58l-51.9,140.8c-52.36,0.18-104.71,0.36-157.07,0.54c41.49,32.02,82.98,64.04,124.47,96.07
		L79.43,379.62c7.62-3.84,17.31-9.67,27.24-18.41c11.23-9.89,18.85-20.05,23.81-27.83c-5.72-0.47-11.44-0.94-17.16-1.41
		c-0.93-0.28-3.36-1.14-5.25-3.57c-1.38-1.77-1.86-3.58-2.04-4.55c-0.08-0.44-0.14-0.88-0.19-1.34c-0.62-5.87,1.42-11.04,3.62-14.8
		c32.79-53.8,65.57-107.6,98.36-161.4c0.88-1.33,1.77-2.65,2.65-3.98c34.64,57.46,69.27,114.91,103.91,172.37
		c0.5,1.03,1.77,3.95,1.13,7.68c-0.47,2.72-1.74,4.6-2.45,5.52c-0.76,0.93-2.04,2.25-3.94,3.33c-2.65,1.51-5.14,1.78-6.47,1.83
		c-4.77,0.07-9.54,0.14-14.32,0.22c5.41,7.87,13.18,17.6,23.97,27.24c10.16,9.07,20.04,15.43,28.07,19.82
		c-14.91-46.3-29.83-92.6-44.74-138.9c41.53-32.17,83.07-64.33,124.6-96.5c-51.73-0.51-103.45-1.03-155.18-1.54
		c-0.59-0.39-1.29-0.95-1.97-1.71c-1.26-1.4-1.88-2.84-2.2-3.79c-16.3-44.77-32.6-89.53-48.9-134.3c-0.23-0.63-0.83-1.06-1.5-1.06
		S209.2,2.95,208.97,3.58z"/>
	<path class="st1" d="M210.11,171.13l-89.66,146.32c7.61-0.84,16.93-2.5,27.24-5.79c10.08-3.22,18.48-7.18,25.09-10.83
		c-9.99,16.32-21.72,33.75-35.49,51.72c-18.16,23.69-36.4,43.83-53.4,60.7c10.1,0.51,22.61,0.26,36.73-2
		c11.62-1.87,21.7-4.68,30.02-7.58c-13.85,19.33-31.16,40.83-52.54,62.82c-23.27,23.93-46.12,43.04-66.43,58.08
		c15.24,2.68,34.54,4.51,56.67,2.84c11.92-0.9,22.72-2.66,32.22-4.77c-18.44,19.15-36.2,34.71-51.79,47.11
		c-14.42,11.46-35.82,27.23-63.21,43.13c-0.94,0.55-1.73,1-2.25,1.3c0.63,0.09,1.6,0.23,2.78,0.39
		c57.8,7.75,104.02-2.78,120.21-6.97c15.62-4.04,36.64-10.8,60.32-22.58c-2.75,24.8-5.5,49.6-8.26,74.41h63.37
		c-2.16-24.62-4.32-49.24-6.49-73.86c20.51,10.23,51.04,22.6,89.75,28.65c36.52,5.7,67.64,3.79,89.62,0.73
		c-16.98-10.51-35.25-23-54.13-37.83c-23.28-18.28-43.05-36.62-59.58-53.66c13.02,2.25,28.51,3.98,45.96,4.06
		c15.32,0.07,29.09-1.13,40.94-2.84c-22.32-17.03-47.34-38.82-72.46-66.28c-17.29-18.9-31.8-37.41-43.91-54.59
		c9.35,2.79,20.57,5.4,33.38,6.99c11.36,1.4,21.66,1.7,30.56,1.46c-19.2-19.07-39.59-41.73-59.7-68.37
		c-11.23-14.87-21.19-29.42-30.02-43.38c6.9,3.8,15.64,7.9,26.11,11.26c10.54,3.39,20.09,5.15,27.93,6.07
		C269.83,268.93,239.97,220.03,210.11,171.13z"/>
</g>
<g>
	<g>
		<g>
			<path class="st1" d="M642.97,468.74c-3.94-15.95-11.02-30.01-14.97-35.99c-6.62-8.96-9.94-11.93-31.98-11.93h-29.3v184.67
				c0,31.78,3.56,34.78,38.4,37.36v13.13H483.63v-13.13c33.58-2.58,36.89-5.45,36.89-37.36V420.82h-27.35
				c-21.28,0-27.4,3.08-34.4,13.21c-5.09,7.51-9.64,19.85-14.61,34.96h-13.46c2.54-26.69,5.09-54.92,5.99-74.63h10.54
				c5.74,9.06,10.19,9.43,21.4,9.43h152.46c10.46,0,15.01-2.06,21.25-9.43h10.42c0.25,16.98,1.78,48.95,3.69,73.22L642.97,468.74z"
				/>
			<path class="st1" d="M918.63,658.59c-3.23,0-7.69-0.14-12.41-0.52c-41.35-2.19-55.77-11.58-69.11-30.59
				c-14.9-20.8-26.93-44.74-39.66-66.79c-6.41-11.15-11.63-13.48-26.41-13.48l-9.66-0.25v58.14c0,31.97,3.96,34.42,33.31,37.77
				v13.13H682.88v-13.13c30.01-3.24,33.18-5.8,33.18-37.77V454.31c0-31.47-3.96-34.65-33.18-37.38v-13.13h106.23
				c31.9,0,51.14,3.74,66.42,14.2c15.43,10.34,25.76,27.55,25.76,51.47c0,34.12-22.03,53.31-48.35,64.21
				c6.14,11.78,21.59,37.27,33.07,54.98c13.65,21.07,21.67,31.27,29.47,40.22c9.33,10.5,15.15,14.01,25.43,17.34L918.63,658.59z
				 M774.52,531.99c17.65,0,30.27-2.85,39.09-10.5c13.42-11,19.05-26.02,19.05-46.21c0-41.26-24.67-56.14-48.9-56.14
				c-10.59,0-16.1,1.55-18.53,3.88c-2.95,2.46-3.84,6.85-3.84,15.42v93.55H774.52z"/>
			<path class="st1" d="M1050.81,655.99v-13.13c24.36-3.36,25.43-7.49,20.08-23.49c-4.23-12.86-10.88-31-17.42-49.64h-77.39
				c-4.88,13.93-10.37,28.81-14.73,42.19c-8.17,24.72-0.33,27.82,30.29,30.94v13.13h-92.33v-13.13c24.1-3.1,30.22-6.32,43.35-39.73
				l79.42-201.68l16.22-3.08c24.34,67.1,50.49,137.66,75.08,203.27c13.48,35.27,16.92,38.12,42.59,41.23v13.13H1050.81z
				 M1015.55,463.06c-11.49,29.84-23.01,59.09-33.24,88.23h64.56L1015.55,463.06z"/>
			<path class="st1" d="M1162.11,655.99v-13.13c29.87-2.99,33.18-5.04,33.18-37.77v-150c0-32.86-3.56-35.42-33.18-38.16v-13.13
				h112.7v13.13c-29.76,2.99-33.31,5.3-33.31,38.16v150c0,32.61,3.31,34.53,33.31,37.77v13.13H1162.11z"/>
			<path class="st1" d="M1430.6,655.99v-13.13c24.36-3.36,25.43-7.49,20.08-23.49c-4.23-12.86-10.88-31-17.42-49.64h-77.39
				c-4.88,13.93-10.37,28.81-14.73,42.19c-8.17,24.72-0.33,27.82,30.29,30.94v13.13h-92.33v-13.13c24.1-3.1,30.22-6.32,43.35-39.73
				l79.42-201.68l16.22-3.08c24.34,67.1,50.49,137.66,75.08,203.27c13.48,35.27,16.92,38.12,42.59,41.23v13.13H1430.6z
				 M1395.34,463.06c-11.49,29.84-23.01,59.09-33.24,88.23h64.56L1395.34,463.06z"/>
			<path class="st1" d="M1807.68,416.93c-23.73,2.97-31.27,7.6-32.42,25.2c-0.88,14.18-1.89,28.46-1.89,63.03v154.83h-19.01
				L1593.4,462.86v90.95c0,34.16,0.9,50.11,1.91,61.36c1.26,18.02,9.83,25.86,37.87,27.68v13.13h-94.18v-13.13
				c22.47-1.94,31.9-7.76,33.93-26.27c1.4-13.42,2.16-28.62,2.16-62.91v-94.4c0-12.12-0.77-19.85-7.9-29.39
				c-7.02-9.7-15.8-11.27-32.8-12.96v-13.13h68.56l151.48,180.03v-78.67c0-34.57-0.52-48.73-1.66-62.14
				c-1.15-16.96-8.2-24.15-39.55-26.09v-13.13h94.47V416.93z"/>
		</g>
	</g>
</g>
<g>
	<g>
		<g>
			<path class="st2" d="M747.17,98.71c-29.43,3.1-32.07,5.43-32.07,37.61v148.51c0,32.18,3.02,34.51,32.07,37.22v14.35H630.6v-14.35
				c29.8-3.88,32.07-5.04,32.07-37.22v-72.9H560.8v72.9c0,32.18,3.4,34.12,31.69,37.22v14.35H476.3v-14.35
				c27.92-3.1,32.07-5.04,32.07-37.22V136.32c0-32.18-3.4-35.29-32.07-37.61V84.37h116.2v14.35c-28.67,2.71-31.69,5.43-31.69,37.61
				v55.45h101.86v-55.45c0-32.18-3.77-34.51-32.07-37.61V84.37h116.57V98.71z"/>
			<path class="st2" d="M910.15,78.94c69.79,0,126.76,52.35,126.76,128.74c0,82.59-57.34,134.55-128.65,134.55
				c-75.45,0-130.15-56.61-130.15-131.45C778.11,144.47,824.13,78.94,910.15,78.94z M904.49,96c-38.48,0-66.77,38.78-66.77,107.41
				c0,65.53,25.28,121.76,76.21,121.76c35.84,0,63.76-35.67,63.76-106.63C977.68,141.75,948.25,96,904.49,96z"/>
			<path class="st2" d="M1274.58,151.45c-4.15-17.84-12.45-32.57-16.22-38c-6.79-8.14-9.81-11.24-32.07-11.24h-24.14v182.25
				c0,32.57,3.77,34.9,37.35,37.61v14.35h-125.25v-14.35c32.07-2.71,35.46-5.04,35.46-37.61V102.2h-23.01
				c-21.13,0-27.16,3.49-34.33,12.8c-5.28,7.37-10.56,21.33-15.47,36.84h-14.34c2.64-28.31,5.28-58.55,6.04-77.16h11.32
				c5.66,8.92,10.19,9.69,21.5,9.69h150.9c10.19,0,15.47-2.33,21.88-9.69h10.94c0.38,16.29,1.89,50.41,3.77,75.61L1274.58,151.45z"
				/>
			<path class="st2" d="M1520.55,270.49c-1.89,10.47-12.45,55.06-15.84,65.92h-195.8v-13.96c34.33-3.49,36.59-5.43,36.59-38V136.32
				c0-32.96-4.53-35.29-30.18-37.61V84.37h122.61c39.61,0,52.82-0.39,58.1-0.78c0.38,6.98,2.26,38.78,3.77,62.82l-14.71,1.94
				c-3.4-13.18-9.81-29.08-16.22-36.06c-6.79-7.76-11.69-10.08-30.93-10.08h-24.52c-14.34,0-15.84,0.78-15.84,13.96v81.04h36.97
				c21.13,0,24.9-5.82,30.56-33.35h14.71v86.47h-14.71c-6.04-28.69-9.05-33.35-30.94-33.35h-36.59v66.69
				c0,26.76,0.75,34.9,24.14,35.29h26.79c21.13,0,26.79-2.71,35.08-13.18c9.43-11.24,16.98-25.59,23.01-38.78L1520.55,270.49z"/>
			<path class="st2" d="M1742.75,268.16c-3.02,16.67-13.58,57.78-16.98,68.25h-187.12v-14.35c33.2-2.33,36.22-5.04,36.22-37.61
				V136.71c0-32.57-3.77-35.67-32.07-38V84.37h117.7v14.35c-29.43,2.71-33.2,5.43-33.2,38v150.45c0,21.33,0.75,31.02,21.5,31.41
				c0.75,0.39,18.11,0.39,19.62,0.39c21.5,0,27.16-4.65,36.22-15.12c7.17-7.75,16.98-24.43,23.77-40.33L1742.75,268.16z"/>
		</g>
	</g>
</g>
</svg>
